<?xml version="1.0" encoding="utf-8"?>
<svg width="800px" height="600px"
     xmlns="http://www.w3.org/2000/svg"
     xmlns:xhtml="http://www.w3.org/1999/xhtml"
     xmlns:xlink="http://www.w3.org/1999/xlink"
     xmlns:a="http://www.adobe.com/svg10-extensions" a:timeline="independent"
     onload="top.load(evt)">

  <defs>

    <clipPath id="gameareaclip">
      <rect x="20" y="20" width="600" height="560"/>
    </clipPath>
    
    <pattern id="background_pattern" x="0" y="0" width="20" height="20" patternUnits="userSpaceOnUse">
      <rect width="20" height="20" style="fill:yellow"/>
      <circle cx="10" cy="10" r="8" style="fill:lightyellow"/>
    </pattern>
    
    <radialGradient id="player_color">
      <stop offset="0.0" style="stop-color:yellow;stop-opacity:1"/>
      <stop offset="0.8" style="stop-color:yellow;stop-opacity:1"/>
      <stop offset="1.0" style="stop-color:orange;stop-opacity:1"/>
    </radialGradient>

    <filter height="200%" width="200%" y="-50%" x="-50%" id="svg_7_blur">
      <feGaussianBlur stdDeviation="0.5" in="SourceGraphic"/>
    </filter>

    <g id="monster">
      <path d="M0,30 q0,-30 20,-30 t20,30 l0,10 continue to the next line...
        l-5,-7 l-5,7 l-5,-7 l-5,7 l-5,-7 l-5,7 l-5,-7 l-5,7 l0,-10"
        style="fill:gray;fill-opacity:0.5;stroke:black;stroke-width:2"/>
      <circle cx="12" cy="20" r="5"
        style="fill:yellow;stroke:black;stroke-width:2">
        <animate attributeType="css" attributeName="fill" values="yellow;red;yellow"
          dur="1s" repeatCount="indefinite"/>
      </circle>
      <circle cx="28" cy="20" r="5"
        style="fill:yellow;stroke:black;stroke-width:2">
         <animate attributeType="css" attributeName="fill" values="yellow;red;yellow"
          dur="1s" repeatCount="indefinite"/>
      </circle>
    </g>

    <g id="bullet">
      <circle cx="5" cy="5" r="5" style="fill:red"/>
      <circle cx="6" cy="3" r="1" style="fill:pink"/>
    </g>

    <g id="goodthing">
      <path stroke="#0e5e0d" stroke-width="2" id="svg_9" d="m0.69899,4.636893l0,0c0,1.972983 5.506903,3.572403 12.300012,3.572403c6.793108,0 12.299999,-1.599419 12.299999,-3.572403l0,0c0,-1.972983 5.506903,-3.572403 12.300012,-3.572403c6.793108,0 12.300012,1.599419 12.300012,3.572403l0,28.579248c0,-1.972983 -5.506903,-3.572416 -12.300012,-3.572416c-6.793108,0 -12.300012,1.599432 -12.300012,3.572416c0,1.972983 -5.506891,3.572403 -12.299999,3.572403c-6.793108,0 -12.300012,-1.599419 -12.300012,-3.572403l0,-28.579248z" fill="#dbffdb"/>
      <path stroke="#546433" id="svg_1" d="m10.402792,30.317882l0,2.174345l-2.009592,0l0,-2.149838c-3.297702,-0.467362 -4.742792,-3.271346 -4.742792,-3.271346l2.054786,-1.776877c0,0 1.309656,2.361127 3.680531,2.361127c1.309533,0 2.303102,-0.725433 2.303102,-1.964039c0,-2.898373 -7.542665,-2.546911 -7.542665,-7.9223c0,-2.336816 1.783782,-4.020289 4.245966,-4.417377l0,-2.17412l2.009674,0l0,2.172925c1.716052,0.233772 3.748247,1.168486 3.748247,3.178967l0,1.542262l-2.664508,0l0,-0.74772c0,-0.771046 -0.94935,-1.285218 -2.010552,-1.285218c-1.35477,0 -2.348353,0.700968 -2.348353,1.682474c0,2.967481 7.542665,2.243215 7.542665,7.875702c0.001086,2.31432 -1.669827,4.323972 -4.266508,4.721032l0,0z" stroke-width="1.5" fill="#54c470"/>
      <text font-weight="bold" stroke="#62612C" transform="matrix(1.0352784405982234,0,0,1.0986345784688165,-2.51514685479967,2.5945998755141466) " xml:space="preserve" text-anchor="start" font-family="Georgia, Times, 'Times New Roman', serif" font-size="22" id="svg_10" y="20.877548" x="19.041991" stroke-width="0" fill="#546433">20</text>
    </g>

  </defs>

  <rect width="100%" height="100%" style="fill:url(#background_pattern);stroke:orange;stroke-width:4" />

  <rect x="20" y="20" width="600" height="560" style="fill:black;stroke:red;stroke-width:5" />
  
  <g id="infopanal" transform="translate(620,20)">
    <g id="timer" transform="translate(0,180)">
      <text x="90" y="0" style="fill:blue;font-size:30px;text-anchor:middle;font-weight:bold;">Time: </text>
      <text id="timertext" x="90" y="50" style="fill:blue;font-size:30px;text-anchor:middle;font-weight:bold;">60</text>
    </g>
    <g id="bullet" transform="translate(0,290)">
      <text x="90" y="0" style="fill:blue;font-size:20px;text-anchor:middle;font-weight:bold;">Score: </text>
      <text id="scoretext" x="90" y="30" style="fill:blue;font-size:20px;text-anchor:middle;font-weight:bold;">0</text>
    </g>
    <g id="bullet" transform="translate(0,350)">
      <text x="90" y="0" style="fill:blue;font-size:20px;text-anchor:middle;font-weight:bold;">Bullet Left: </text>
      <text id="bullettext" x="90" y="30" style="fill:blue;font-size:20px;text-anchor:middle;font-weight:bold;">8</text>
    </g>
    <g id="bullet" transform="translate(0,410)">
      <text x="90" y="0" style="fill:blue;font-size:20px;text-anchor:middle;font-weight:bold;">Level: </text>
      <text id="leveltext" x="90" y="30" style="fill:blue;font-size:20px;text-anchor:middle;font-weight:bold;">1</text>
    </g>
    <g id="cheatmode" transform="translate(0,470)">
      <text x="90" y="0" style="fill:blue;font-size:20px;text-anchor:middle;font-weight:bold;">Cheat Mode: </text>
      <text id="cheatmodetext" x="90" y="30" style="fill:blue;font-size:20px;text-anchor:middle;font-weight:bold;">OFF</text>
    </g>
  </g>

  <g style="clip-path:url(#gameareaclip)">
    <g transform="translate(20,20)">
      <g id="gamearea" transform="translate(0,0)" width="600" height="560">
        <rect x="0" y="0" width="600" height="560" style="fill:white" />

        <g id="platforms">

          <!-- Add your platforms here -->
          <rect x="0" y="540" width="600" height="20" style="fill:red"/>
          <rect x="0" y="520" width="40" height="20" style="fill:red"/>

          <rect x="260" y="520" width="100" height="20" style="fill:red"/>
          <rect x="280" y="500" width="60" height="20" style="fill:red"/>
          <rect x="300" y="480" width="20" height="40" style="fill:red"/>

          <rect x="460" y="520" width="40" height="40" style="fill:red"/>

          <rect x="120" y="440" width="60" height="20" style="fill:red"/>
          <rect x="100" y="420" width="160" height="20" style="fill:red"/>
          <rect x="60" y="400" width="140" height="20" style="fill:red"/>
          <rect x="100" y="380" width="60" height="20" style="fill:red"/>
          <rect x="80" y="360" width="100" height="20" style="fill:red"/>
          <rect x="120" y="340" width="40" height="20" style="fill:red"/>

          <rect x="360" y="440" width="80" height="20" style="fill:red"/>
          <rect x="400" y="420" width="100" height="20" style="fill:red"/>
          <rect x="440" y="400" width="20" height="20" style="fill:red"/>

          <rect x="500" y="480" width="60" height="20" style="fill:red"/>
          <rect x="540" y="460" width="60" height="20" style="fill:red"/>
          <rect x="580" y="440" width="20" height="20" style="fill:red"/>

          <rect x="300" y="340" width="120" height="20" style="fill:red"/>
          <rect x="260" y="320" width="100" height="20" style="fill:red"/>
          <rect x="220" y="300" width="80" height="20" style="fill:red"/>

          <rect x="40" y="260" width="80" height="20" style="fill:red"/>
          <rect x="80" y="240" width="100" height="20" style="fill:red"/>
          <rect x="120" y="220" width="40" height="20" style="fill:red"/>
          <rect x="140" y="200" width="20" height="20" style="fill:red"/>

          <rect x="440" y="260" width="160" height="20" style="fill:red"/>
          <rect x="500" y="240" width="120" height="20" style="fill:red"/>
          <rect x="540" y="220" width="80" height="20" style="fill:red"/>

          <rect x="40" y="140" width="60" height="20" style="fill:red"/>

          <rect x="200" y="140" width="320" height="20" style="fill:red"/>
          <rect x="260" y="120" width="200" height="20" style="fill:red"/>
          <rect x="300" y="80" width="40" height="40" style="fill:red"/>
          <rect x="120" y="60" width="200" height="20" style="fill:red"/>

          <rect x="420" y="40" width="180" height="20" style="fill:red"/>
        </g>

        <g id="exit" transform="translate(560,0)">
          <text stroke="#00ff00" transform="matrix(1.7446281909942627,0,0,1.7446281909942627,-2.4084068052470684,-0.6399148516356945) " font-weight="bold" xml:space="preserve" text-anchor="start" font-family="'Palatino Linotype', 'Book Antiqua', Palatino, serif" font-size="5" id="svg_4" y="4.799498" x="6.246516" stroke-width="0" fill="#049907">E x i t</text>
          <rect stroke="#00acea" stroke-width="0" id="svg_5" height="30.319887" width="40.468979" y="9.66387" x="-0.326645" fill="#b5f8fc"/>
          <rect stroke="null" transform="rotate(-32.177642822265625 9.99527072906495,24.940296173095707) " filter="url(#svg_7_blur)" id="svg_7" height="34.686509" width="3.835044" y="7.597042" x="8.077749" stroke-width="NaN" fill="#e6f6f7"/>
          <ellipse stroke="#00acea" ry="1.006925" rx="0.923015" id="svg_12" cy="25.065194" cx="22.504755" stroke-width="0" fill="#426373"/>
          <rect stroke="null" transform="rotate(-32.177642822265625 30.456121444702152,24.9402961730957) " filter="url(#svg_7_blur)" id="svg_15" height="34.686509" width="3.835044" y="7.597042" x="28.538601" stroke-width="NaN" fill="#e6f6f7"/>
          <ellipse stroke="#00acea" ry="1.006925" rx="0.923015" id="svg_16" cy="25.065194" cx="22.504755" stroke-width="0" fill="#426373"/>
          <ellipse stroke="#00acea" ry="1.006925" rx="0.923015" id="svg_17" cy="25" cx="16.790463" stroke-width="0" fill="#426373"/>
          <rect stroke="#00acea" id="svg_14" height="29.823819" width="19.785857" y="10.016268" x="20.025774" stroke-width="0.5" fill="none"/>
          <rect stroke="#00acea" id="svg_8" height="29.823819" width="19.693693" y="9.924102" x="0.210084" stroke-width="0.5" fill="none"/>
          <line stroke="#00ff00" x1="-0.276502" stroke-linecap="undefined" stroke-linejoin="undefined" id="svg_2" y2="9.260778" x2="40.184356" y1="9.260778" fill="none"/>
          <rect id="exitcoor" height="40" width="40" y="0" x="0" fill-opacity="null" stroke-opacity="null" stroke-width="0.5" fill="none"/>
        </g>

        <g id="player">
          <circle cx="20" cy="20" r="20" style="fill:url(#player_color);stroke:black;stroke-width:2"/>
          <ellipse cx="15" cy="15" rx="3" ry="6" style="fill:black"/>
          <ellipse cx="25" cy="15" rx="3" ry="6" style="fill:black"/>
          <path d="M10,25 l20,0 q0,8 -10,8 t-10,-8" style="fill:orange;stroke:black;stroke-black:2"/>
        </g>

        <g id="monsters"/>

        <g id="bullets"/>

        <g id="goodthings"/>

        <g id="startpopup" transform="translate(100,80)">
          <rect x="0" y="0" width="400" height="400" style="fill:white;stroke:slateblue;stroke-width:2"/>
          <text x="200" y="200"
            style="fill:slateblue;font-size:40px;text-anchor:middle" cursor="pointer">FUCK YOU BITCH</text>

            <g transform="translate(150,350)" cursor="pointer" onclick="top.startonclick()">
              <rect x="0" y="0" width="100" height="30" style="fill:white;stroke:blue;stroke-width:2"/>
              <text x="50" y="20" style="fill:blue;font-size:15px;text-anchor:middle;font-weight:bold;">Start</text>
            </g>
        </g>

        <g id="levelpopup" transform="translate(100,210)" style="visibility:hidden">
          <rect x="0" y="0" width="400" height="100" style=" fill:white;stroke:seagreen;stroke-width:2"/>
          <text id="levelpopuptext" x="200" y="65" style="fill:seagreen;font-size:40px;text-anchor:middle"/>
        </g>

        <g id="endgame" transform="translate(100,200)" style="visibility:hidden">
          <rect x="0" y="0" width="400" height="150" style="fill:white;stroke:red;stroke-width:2"/>
          <text x="200" y="90"
            style="fill:red;font-size:40px;text-anchor:middle" cursor="pointer">YOU LOSE BITCH</text>             
        </g>
      </g>  <!--gamearea-->

      <g id="highscoretable" transform="translate(50,100)" style="visibility:hidden">
          <rect width="500" height="380" style="fill:white;stroke:lightcoral;stroke-width:4;stroke-dasharray:5,10,5;"/>
          <text x="250" y="50" style="fill:firebrick;font-size:30px;font-weight:bold;text-anchor:middle">
            High Score Table
          </text>
          <text id="highscoretext" y="80" style="font-size:20px;font-weight:bold;fill:darkred;"/>
            
            <g transform="translate(200,320)" cursor="pointer" onclick="window.location.reload()">
              <rect x="0" y="0" width="120" height="30" style="fill:white;stroke:steelblue;stroke-width:2"/>
              <text x="60" y="20" style="fill:steelblue;font-size:15px;text-anchor:middle;font-weight:bold;">Start Again?</text>
          </g>   
      </g>

    </g>
  </g>
</svg>
